<?xml version="1.0" encoding="UTF-8" standalone="no"?>
<!DOCTYPE svg PUBLIC "-//W3C//DTD SVG 1.0//EN" "http://www.w3.org/TR/2001/PR-SVG-20010719/DTD/svg10.dtd">
<svg width="16cm" height="11cm" viewBox="239 59 304 203" xmlns="http://www.w3.org/2000/svg" xmlns:xlink="http://www.w3.org/1999/xlink">
  <g>
    <rect style="fill: #ffffff" x="240" y="60" width="120" height="180"/>
    <rect style="fill: none; fill-opacity:0; stroke-width: 2; stroke: #000000" x="240" y="60" width="120" height="180"/>
  </g>
  <g>
    <line style="fill: none; fill-opacity:0; stroke-width: 2; stroke: #000000" x1="360" y1="80" x2="435" y2="80"/>
    <polygon style="fill: #000000" points="440,77 440,83 434,83 434,77 "/>
    <line style="fill: none; fill-opacity:0; stroke-width: 2; stroke: #000000" x1="437" y1="74" x2="437" y2="86"/>
  </g>
  <g>
    <line style="fill: none; fill-opacity:0; stroke-width: 2; stroke: #000000" x1="360" y1="100" x2="429" y2="100"/>
    <path style="fill: #ffffff" d="M 439 100 C 439,102.5 436.5,105 434,105 C 431.5,105 429,102.5 429,100 C 429,97.5 431.5,95 434,95 C 436.5,95 439,97.5 439,100z"/>
    <path style="fill: none; fill-opacity:0; stroke-width: 2; stroke: #000000" d="M 439 100 C 439,102.5 436.5,105 434,105 C 431.5,105 429,102.5 429,100 C 429,97.5 431.5,95 434,95 C 436.5,95 439,97.5 439,100"/>
  </g>
  <g>
    <line style="fill: none; fill-opacity:0; stroke-width: 2; stroke: #000000" x1="360" y1="120" x2="429" y2="120"/>
    <path style="fill: #ffffff" d="M 439 120 C 439,122.5 436.5,125 434,125 C 431.5,125 429,122.5 429,120 C 429,117.5 431.5,115 434,115 C 436.5,115 439,117.5 439,120z"/>
    <path style="fill: none; fill-opacity:0; stroke-width: 2; stroke: #000000" d="M 439 120 C 439,122.5 436.5,125 434,125 C 431.5,125 429,122.5 429,120 C 429,117.5 431.5,115 434,115 C 436.5,115 439,117.5 439,120"/>
  </g>
  <g>
    <line style="fill: none; fill-opacity:0; stroke-width: 2; stroke: #000000" x1="360" y1="140" x2="507.764" y2="140"/>
    <polygon style="fill: none; fill-opacity:0; stroke-width: 2; stroke: #000000" points="507.764,145 517.764,140 507.764,135 "/>
  </g>
  <g>
    <line style="fill: none; fill-opacity:0; stroke-width: 2; stroke: #000000" x1="360" y1="160" x2="429" y2="160"/>
    <path style="fill: #ffffff" d="M 439 160 C 439,162.5 436.5,165 434,165 C 431.5,165 429,162.5 429,160 C 429,157.5 431.5,155 434,155 C 436.5,155 439,157.5 439,160z"/>
    <path style="fill: none; fill-opacity:0; stroke-width: 2; stroke: #000000" d="M 439 160 C 439,162.5 436.5,165 434,165 C 431.5,165 429,162.5 429,160 C 429,157.5 431.5,155 434,155 C 436.5,155 439,157.5 439,160"/>
  </g>
  <line style="fill: none; fill-opacity:0; stroke-width: 2; stroke: #000000" x1="360" y1="180" x2="520" y2="180"/>
  <g>
    <line style="fill: none; fill-opacity:0; stroke-width: 2; stroke: #000000" x1="360" y1="200" x2="429" y2="200"/>
    <path style="fill: #ffffff" d="M 439 200 C 439,202.5 436.5,205 434,205 C 431.5,205 429,202.5 429,200 C 429,197.5 431.5,195 434,195 C 436.5,195 439,197.5 439,200z"/>
    <path style="fill: none; fill-opacity:0; stroke-width: 2; stroke: #000000" d="M 439 200 C 439,202.5 436.5,205 434,205 C 431.5,205 429,202.5 429,200 C 429,197.5 431.5,195 434,195 C 436.5,195 439,197.5 439,200"/>
  </g>
  <g>
    <line style="fill: none; fill-opacity:0; stroke-width: 2; stroke: #000000" x1="360" y1="220" x2="435" y2="220"/>
    <polygon style="fill: #000000" points="440,217 440,223 434,223 434,217 "/>
    <line style="fill: none; fill-opacity:0; stroke-width: 2; stroke: #000000" x1="437" y1="214" x2="437" y2="226"/>
  </g>
  <text style="fill: #000000;text-anchor:start;font-size:12.8;font-family:sanserif;font-style:normal;font-weight:normal" x="340" y="80">
    <tspan x="340" y="80">1</tspan>
  </text>
  <text style="fill: #000000;text-anchor:start;font-size:12.8;font-family:sanserif;font-style:normal;font-weight:normal" x="340" y="220">
    <tspan x="340" y="220">8</tspan>
  </text>
  <text style="fill: #000000;text-anchor:start;font-size:12.8;font-family:sanserif;font-style:normal;font-weight:normal" x="440" y="120">
    <tspan x="440" y="120">MOSI</tspan>
  </text>
  <text style="fill: #000000;text-anchor:start;font-size:12.8;font-family:sanserif;font-style:normal;font-weight:normal" x="440" y="200">
    <tspan x="440" y="200">MISO</tspan>
  </text>
  <text style="fill: #000000;text-anchor:start;font-size:12.8;font-family:sanserif;font-style:normal;font-weight:normal" x="520" y="140">
    <tspan x="520" y="140">Vcc</tspan>
  </text>
  <text style="fill: #000000;text-anchor:start;font-size:12.8;font-family:sanserif;font-style:normal;font-weight:normal" x="440" y="160">
    <tspan x="440" y="160">SCLK</tspan>
  </text>
  <text style="fill: #000000;text-anchor:start;font-size:12.8;font-family:sanserif;font-style:normal;font-weight:normal" x="440" y="100">
    <tspan x="440" y="100">nSS</tspan>
  </text>
  <g>
    <line style="fill: none; fill-opacity:0; stroke-width: 2; stroke: #000000" x1="520" y1="220" x2="520" y2="240"/>
    <line style="fill: none; fill-opacity:0; stroke-width: 2; stroke: #000000" x1="500" y1="240" x2="540" y2="240"/>
    <line style="fill: none; fill-opacity:0; stroke-width: 2; stroke: #000000" x1="506.7" y1="250" x2="533.3" y2="250"/>
    <line style="fill: none; fill-opacity:0; stroke-width: 2; stroke: #000000" x1="513.4" y1="260" x2="526.6" y2="260"/>
  </g>
  <line style="fill: none; fill-opacity:0; stroke-width: 2; stroke: #000000" x1="520" y1="180" x2="520" y2="220"/>
</svg>
