<?xml version="1.0" encoding="UTF-8" standalone="no"?>
<!DOCTYPE svg PUBLIC "-//W3C//DTD SVG 1.0//EN" "http://www.w3.org/TR/2001/PR-SVG-20010719/DTD/svg10.dtd">
<svg width="20cm" height="10cm" viewBox="79 89 385 194" xmlns="http://www.w3.org/2000/svg" xmlns:xlink="http://www.w3.org/1999/xlink">
  <g>
    <g>
      <rect style="fill: #ffffff" x="80" y="120" width="80" height="60"/>
      <rect style="fill: none; fill-opacity:0; stroke-width: 2; stroke: #000000" x="80" y="120" width="80" height="60"/>
    </g>
    <text style="fill: #000000;text-anchor:start;font-size:12.8;font-family:sanserif;font-style:normal;font-weight:normal" x="105" y="155">
      <tspan x="105" y="155">USB-B</tspan>
    </text>
  </g>
  <line style="fill: none; fill-opacity:0; stroke-width: 2; stroke: #000000" x1="160" y1="120" x2="300" y2="120"/>
  <line style="fill: none; fill-opacity:0; stroke-width: 2; stroke: #000000" x1="160" y1="180" x2="200" y2="180"/>
  <g>
    <line style="fill: none; fill-opacity:0; stroke-width: 2; stroke: #000000" x1="200" y1="200" x2="200" y2="220"/>
    <line style="fill: none; fill-opacity:0; stroke-width: 2; stroke: #000000" x1="180" y1="220" x2="220" y2="220"/>
    <line style="fill: none; fill-opacity:0; stroke-width: 2; stroke: #000000" x1="186.7" y1="230" x2="213.3" y2="230"/>
    <line style="fill: none; fill-opacity:0; stroke-width: 2; stroke: #000000" x1="193.4" y1="240" x2="206.6" y2="240"/>
  </g>
  <line style="fill: none; fill-opacity:0; stroke-width: 2; stroke: #000000" x1="200" y1="180" x2="200" y2="200"/>
  <g>
    <line style="fill: none; fill-opacity:0; stroke-width: 2; stroke: #000000" x1="160" y1="140" x2="209" y2="140"/>
    <path style="fill: #ffffff" d="M 219 140 C 219,142.5 216.5,145 214,145 C 211.5,145 209,142.5 209,140 C 209,137.5 211.5,135 214,135 C 216.5,135 219,137.5 219,140z"/>
    <path style="fill: none; fill-opacity:0; stroke-width: 2; stroke: #000000" d="M 219 140 C 219,142.5 216.5,145 214,145 C 211.5,145 209,142.5 209,140 C 209,137.5 211.5,135 214,135 C 216.5,135 219,137.5 219,140"/>
  </g>
  <g>
    <line style="fill: none; fill-opacity:0; stroke-width: 2; stroke: #000000" x1="160" y1="160" x2="209" y2="160"/>
    <path style="fill: #ffffff" d="M 219 160 C 219,162.5 216.5,165 214,165 C 211.5,165 209,162.5 209,160 C 209,157.5 211.5,155 214,155 C 216.5,155 219,157.5 219,160z"/>
    <path style="fill: none; fill-opacity:0; stroke-width: 2; stroke: #000000" d="M 219 160 C 219,162.5 216.5,165 214,165 C 211.5,165 209,162.5 209,160 C 209,157.5 211.5,155 214,155 C 216.5,155 219,157.5 219,160"/>
  </g>
  <text style="fill: #000000;text-anchor:start;font-size:12.8;font-family:sanserif;font-style:normal;font-weight:normal" x="220" y="140">
    <tspan x="220" y="140">D-</tspan>
  </text>
  <text style="fill: #000000;text-anchor:start;font-size:12.8;font-family:sanserif;font-style:normal;font-weight:normal" x="220" y="160">
    <tspan x="220" y="160">D+</tspan>
  </text>
  <g>
    <line style="fill: none; fill-opacity:0; stroke-width: 2; stroke: #000000" x1="260" y1="120" x2="260" y2="207.764"/>
    <polygon style="fill: none; fill-opacity:0; stroke-width: 2; stroke: #000000" points="255,207.764 260,217.764 265,207.764 "/>
  </g>
  <text style="fill: #000000;text-anchor:start;font-size:12.8;font-family:sanserif;font-style:normal;font-weight:normal" x="260" y="240">
    <tspan x="260" y="240"> V_USB</tspan>
  </text>
  <polyline style="fill: none; fill-opacity:0; stroke-width: 2; stroke: #000000" points="300,120 318,120 320,100 324,140 328,100 332,140 336,100 340,140 342,120 360,120 "/>
  <polyline style="fill: none; fill-opacity:0; stroke-width: 2; stroke: #000000" points="360,160 360,178 340,180 380,184 340,188 380,192 340,196 380,200 360,202 360,220 "/>
  <g>
    <line style="fill: none; fill-opacity:0; stroke-width: 2; stroke: #000000" x1="360" y1="220" x2="360" y2="240"/>
    <line style="fill: none; fill-opacity:0; stroke-width: 2; stroke: #000000" x1="340" y1="240" x2="380" y2="240"/>
    <line style="fill: none; fill-opacity:0; stroke-width: 2; stroke: #000000" x1="346.7" y1="250" x2="373.3" y2="250"/>
    <line style="fill: none; fill-opacity:0; stroke-width: 2; stroke: #000000" x1="353.4" y1="260" x2="366.6" y2="260"/>
  </g>
  <g>
    <line style="fill: none; fill-opacity:0; stroke-width: 2; stroke: #000000" x1="360" y1="120" x2="409" y2="120"/>
    <path style="fill: #ffffff" d="M 419 120 C 419,122.5 416.5,125 414,125 C 411.5,125 409,122.5 409,120 C 409,117.5 411.5,115 414,115 C 416.5,115 419,117.5 419,120z"/>
    <path style="fill: none; fill-opacity:0; stroke-width: 2; stroke: #000000" d="M 419 120 C 419,122.5 416.5,125 414,125 C 411.5,125 409,122.5 409,120 C 409,117.5 411.5,115 414,115 C 416.5,115 419,117.5 419,120"/>
  </g>
  <line style="fill: none; fill-opacity:0; stroke-width: 2; stroke: #000000" x1="360" y1="120" x2="360" y2="160"/>
  <text style="fill: #000000;text-anchor:start;font-size:12.8;font-family:sanserif;font-style:normal;font-weight:normal" x="320" y="160">
    <tspan x="320" y="160">R1</tspan>
  </text>
  <text style="fill: #000000;text-anchor:start;font-size:12.8;font-family:sanserif;font-style:normal;font-weight:normal" x="400" y="200">
    <tspan x="400" y="200">R2</tspan>
  </text>
  <text style="fill: #000000;text-anchor:start;font-size:12.8;font-family:sanserif;font-style:normal;font-weight:normal" x="400" y="140">
    <tspan x="400" y="140">USBsense</tspan>
  </text>
  <text style="fill: #000000;text-anchor:start;font-size:12.8;font-family:sanserif;font-style:normal;font-weight:normal" x="80" y="260">
    <tspan x="80" y="260">R1 = 330 KOhm</tspan>
  </text>
  <text style="fill: #000000;text-anchor:start;font-size:12.8;font-family:sanserif;font-style:normal;font-weight:normal" x="80" y="280">
    <tspan x="80" y="280">R2 = 680 KOhm</tspan>
  </text>
</svg>
